<svg width="160" height="48" viewBox="0 0 160 48" fill="none" xmlns="http://www.w3.org/2000/svg">
<path d="M114.333 8.07732H123.4L107.621 47.1404H97.1424L81.3629 8.07732H90.4306L102.361 37.726L114.333 8.07732Z" fill="#FF564F"/>
<path d="M8.25957 0H0V47.1541H8.25957V0Z" fill="#FF564F"/>
<path d="M30.8467 47.1541L12.7523 23.577L30.8467 0H41.2157L23.3542 23.577L41.2157 47.1541H30.8467Z" fill="#FF564F"/>
<path d="M60.9811 7.04036C51.9408 7.04036 45.1331 12.0205 44.64 19.4292L44.5852 20.3024H52.6941L52.8311 19.6612C53.5845 16.1819 56.4335 14.2717 60.8441 14.2717C65.6382 14.2717 68.3914 16.6731 68.3914 20.8755V23.2905L58.2142 23.8636C49.0643 24.3957 43.5305 28.8573 43.5305 35.7885C43.5305 43.1018 49.0369 48 57.1321 48C61.9536 48 65.4738 46.6902 68.3503 43.7567V47.3314H76.5688V20.2479C76.5688 12.2251 70.3501 7.04036 60.9811 7.04036ZM68.3777 29.6214V32.05C67.8435 37.3576 64.1589 40.6868 58.5155 40.9596C56.3376 41.0688 54.4611 40.4821 53.2283 39.3087C52.2558 38.3945 51.749 37.1666 51.749 35.7749C51.749 32.664 54.4063 30.7129 59.0771 30.4127L68.3777 29.6214Z" fill="#FF564F"/>
<path d="M144.399 7.04036C135.358 7.04036 128.551 12.0205 128.058 19.4292L128.003 20.3024H136.112L136.249 19.6612C137.002 16.1819 139.851 14.2717 144.262 14.2717C149.056 14.2717 151.809 16.6731 151.809 20.8755V23.2905L141.645 23.8636C132.496 24.3957 126.962 28.8573 126.962 35.7885C126.962 43.1018 132.468 48 140.563 48C145.385 48 148.905 46.6902 151.782 43.7567V47.3314H160V20.2479C159.986 12.2251 153.768 7.04036 144.399 7.04036ZM151.809 29.6214V32.05C151.275 37.3576 147.59 40.6868 141.947 40.9596C139.769 41.0688 137.892 40.4821 136.66 39.3087C135.687 38.3945 135.18 37.1666 135.18 35.7749C135.18 32.664 137.838 30.7129 142.508 30.4127L151.809 29.6214Z" fill="#FF564F"/>
</svg>
